<svg width="1024" height="1024" viewBox="0 0 1024 1024" fill="none" xmlns="http://www.w3.org/2000/svg">
<g clip-path="url(#clip0_201_63)">
<path d="M0 0H1024V1024H0V0Z" fill="#FF501A"/>
<path d="M519.694 142.261C531.328 142.117 545.878 141.689 557.287 142.724C594.384 146.091 630.374 157.225 663.238 174.111C704.257 195.187 746.096 219.498 777.95 252.664C784.817 259.814 790.679 268.89 797.173 276.7C824.382 309.417 841.234 341.168 854.162 381.174C865.355 415.809 867.67 445.449 869.34 481.433C870.019 496.053 871.228 513.257 868.909 527.754C867.326 537.651 861.734 548.839 856.893 557.724C891.708 617.23 874.588 695.95 857.33 758.24C854.89 767.047 850.609 779.708 841.945 784.466C834.165 784.538 825.252 781.369 817.735 783.405C801.463 787.813 803.682 825.851 784.881 838.052C775.344 844.242 763.183 844.127 752.347 842.073C747.188 853.486 742.259 864.179 731.679 872.294C719.033 881.521 698.312 882.93 683.277 881.439C653.703 878.508 639.384 851.145 635.574 825.598C632.264 803.397 632.729 781.01 631.407 758.575L627.57 691.803C626.438 674.754 624.796 657.453 624.042 640.432C623.376 625.421 624.486 610.048 623.534 594.893C622.026 570.9 620.354 546.96 619.178 522.936C618.331 507.482 617.307 492.045 619.051 476.677C622.943 442.387 654.322 419.065 689.667 423.975C697.842 425.111 700.854 427.993 705.468 434.167C724.642 431.178 733.779 434.195 743.469 450.972C756.599 455.242 765.456 463.589 773.309 474.423C779.566 483.055 782.356 491.872 794.748 492.3C799.806 481.366 800.683 466.934 801.497 454.949C804.373 412.625 785.235 368.952 755.97 337.646C724.92 348.129 690.758 323.026 664.193 309.167C637.739 295.145 609.936 283.63 581.175 274.785C550.87 265.323 530.158 262.271 497.999 264.446C471.84 265.031 437.583 272.168 413.61 282.686C379.256 297.757 346.403 320.754 309.859 331.148C296.375 334.984 285.888 328.887 274.906 322.112C237.575 355.995 221.912 411.099 225.153 459.226C225.902 470.34 226.539 481.012 228.943 491.951C255.47 484.24 250.642 453.075 284.368 450.855C292.671 431.772 295.368 433.31 315.735 434.277C318.769 430.899 321.387 427.751 325.481 425.51C335.368 420.097 349.176 421.655 359.668 424.222C375.236 428.032 388.38 435.25 396.551 448.954C402.249 458.512 404.669 472.101 405.136 482.95C406.641 517.868 401.91 552.307 400.265 587.095C399.334 606.767 400.663 626.738 399.639 646.387C398.834 661.838 396.841 677.556 395.651 693.06C393.996 714.605 393.708 736.415 392.12 757.926C390.155 784.529 393.652 811.314 386.198 837.116C381.66 852.827 374.297 867.079 359.115 875.411C344.945 883.186 325.656 883.047 310.349 879.092C298.962 876.151 285.672 868.999 279.729 858.864C277.673 855.357 276.22 851.171 274.035 847.437L273.769 846.993C262.607 840.597 252.151 846.439 240.432 838.298C220.741 824.621 223.919 796.622 205.979 784.351C195.71 777.327 191.916 783.788 184.263 785.356L183.594 785.489C181.695 785.039 179.941 784.595 178.323 783.494C165.647 774.875 155.737 732.4 153.173 717.411C145.619 673.264 139.602 596.24 167.88 558.166C158.314 541.019 153.661 532.598 153.547 511.869C153.222 452.919 160.323 392.12 185.305 337.833C194.691 317.697 206.15 298.521 219.511 280.593C230.919 264.701 243.673 249.749 257.644 235.89C304.851 189.08 359.099 164.823 424.802 152.3C440.601 149.288 457.302 145.966 473.307 144.275C488.456 142.675 504.444 142.465 519.694 142.261Z" fill="#052234"/>
<path d="M673.311 430.557C677.194 429.919 686.6 430.409 690.608 430.712C694.569 441.971 695.58 453.553 696.94 465.272C699.026 482.541 700.407 499.884 701.08 517.258C701.633 532.017 701.522 546.976 702.174 561.644C702.918 578.364 706.058 595.742 707.094 612.523C708.499 635.293 707.696 658.03 709.06 680.816C710.084 699.727 713.333 718.425 714.725 737.308C715.943 753.82 713.942 770.304 715.285 786.812C715.667 791.521 715.767 796.138 716.33 800.861C714.233 801.965 710.439 804.071 708.234 804.373C669.466 809.689 650.988 743.97 645.166 720.527C636.128 689.76 631.178 658.861 630.939 626.939C630.866 617.369 630.397 608.333 631.038 598.641C634.502 597.167 637.021 596.745 636.548 592.332C634.669 574.031 634.559 556.592 634.278 538.109C633.866 512.365 630.302 486.796 640.166 462.174C643.691 453.375 658.867 445.248 659.165 441.707C656.542 437.992 649.032 443.258 646.506 445.229C623.618 463.103 628.415 494.463 625.915 519.651C623.042 498.81 622.509 467.455 636.599 450.247C646.331 438.362 657.81 432.313 673.311 430.557Z" fill="#EAF0E6"/>
<path d="M636.137 627.765C640.702 629.061 640.618 633.222 640.769 637.157C641.565 657.805 646.351 677.981 649.344 698.359C649.491 699.361 648.108 700.531 647.425 701.189C644.614 701.097 643.496 696.681 643.006 694.427C638.526 673.833 634.788 652.336 634.684 631.262C634.679 630.206 635.59 628.656 636.137 627.765Z" fill="#052234"/>
<path d="M676.643 774.418C681.298 775.695 686.03 784.995 692.769 788.452C699.698 792.007 705.737 790.373 710.463 792.626C711.499 793.946 711.274 793.232 711.262 794.809C710.417 796.513 710.128 796.634 708.619 797.932C699.342 800.6 689.026 795.228 682.54 789.07C678.701 785.426 671.612 779.363 676.643 774.418Z" fill="#052234"/>
<path d="M652.827 722.031C654.043 722.941 656.011 728.185 656.131 729.523C656.637 735.145 667.838 755.571 667.344 759.528C666.344 761.249 666.553 760.745 664.38 761.822C659.433 755.7 648.912 732.582 649.592 724.708C650.342 723.244 651.356 722.882 652.827 722.031Z" fill="#052234"/>
<path d="M336.063 429.296C368.382 427.07 394.516 443.75 398.277 475.868C399.439 485.795 399.051 496.266 398.01 506.187C397.408 503.314 397.015 497.246 396.755 494.15C395.537 480.012 393.999 464.544 384.846 452.833C381.442 448.479 364.958 431.014 358.77 436.069C358.661 438.992 361.963 441.23 364.284 442.646C381.134 452.928 387.694 466.772 390.194 485.629C392.252 500.956 390.734 516.653 390.608 532.002C390.442 552.203 390.173 571.934 387.179 591.958C386.973 593.332 387.153 595.956 387.978 597.106C389.519 598.207 390.976 598.238 392.901 598.548C394.444 654.662 388.896 701.404 366.43 753.389C361.18 765.569 352.285 782.515 343.373 792.105C336.093 799.982 326.205 805.198 315.161 805.662C306.989 806.005 307.094 802.063 307.046 795.71C322.967 801.56 340.231 790.493 348.99 777.741C349.803 776.557 348.955 773.741 347.277 773.591C344.089 773.306 341.318 776.649 339.094 778.451C329.364 787.549 321.428 792.301 307.685 789.563C307.157 766.844 308.571 743.229 311.577 720.721C312.982 710.193 314.501 699.717 315.026 689.105L321.571 564.904C323.259 528.802 322.658 492.256 328.181 456.453C329.533 447.683 331.58 439.061 333.28 430.352C334.401 429.285 334.176 429.616 336.063 429.296Z" fill="#EAF0E6"/>
<path d="M384.601 625.404C385.857 625.864 388.661 626.889 388.752 628.09C389.72 640.815 384.068 693.078 379.257 702.09C377.761 702.074 377.581 701.944 376.181 701.521C374.333 699.684 375.11 697.285 375.487 694.862C376.77 686.6 378.245 678.361 379.299 670.068C380.364 661.767 381.201 653.441 381.808 645.098C382.195 639.079 381.454 630.609 384.601 625.404Z" fill="#052234"/>
<path d="M370.008 720.789C372.101 720.878 372.681 720.808 373.936 722.498C374.423 727.609 362.081 756.599 358.977 762.177C358.378 762.033 357.561 761.907 357.027 761.619C356.093 761.115 355.62 760.475 355.401 759.459C354.908 757.174 367.667 723.865 370.008 720.789Z" fill="#052234"/>
<path d="M517.331 149.105C528.372 148.392 544.779 148.952 555.753 149.84C578.079 151.61 600.057 156.269 621.094 163.69C670.185 180.737 746.511 226.538 780.409 265.163C774.113 275.088 770.637 282.109 763.055 291.561C760.925 289.021 758.761 286.508 756.563 284.021C729.568 253.821 699.411 236.116 663.154 217.846C620.903 196.557 576.264 181.598 528.311 178.199L527.916 178.172C478.145 174.772 426.963 176.081 381.523 197.451C370.903 202.445 361.515 207.619 351.334 213.43C331.25 224.654 312.144 237.431 294.204 251.635C284.494 259.4 276.881 267.996 267.945 275.461C261.453 269.694 254.577 262.716 248.306 256.621C251.035 253.094 254.958 249.115 258.089 245.886C304.871 197.627 357.3 173.088 423.844 160.073C460.097 152.982 480.226 150.308 517.331 149.105Z" fill="#EAF0E6"/>
<path d="M483.872 183.908C511.72 182.648 560.618 187.058 587.697 195.405C637.604 210.789 697.655 238.809 736.523 273.526C741.111 277.624 749.637 286.06 752.339 290.856C744.161 286.697 718.354 264.565 712.213 265.673C711.015 265.889 710.937 266.148 710.373 267.087C710.326 268.776 711.093 269.789 711.907 271.317C684.805 265.196 672.964 254.808 648.659 244.01C635.367 238.105 617.852 234.166 603.587 231.12C577.445 225.395 550.901 221.534 524.17 219.567C489.046 217.661 447.994 218.942 413.836 228.329C400.152 232.089 397.224 236.124 385.797 243.044C362.571 257.107 338.823 263.773 311.548 259.07C316.645 255.36 324.968 250.478 329.721 246.015C330.344 245.431 330.253 243.93 330.131 243.074C329.16 241.655 329.798 242.141 328.161 241.551C318.534 242.326 284.438 272.333 275.157 280.218C283.881 265.864 317.794 242.426 332.295 233.095C346.389 223.923 361.011 215.531 376.094 207.962C415.018 188.645 439.834 185.921 483.872 183.908Z" fill="#EAF0E6"/>
<path d="M747.316 500.08C768.819 507.574 761.183 515.722 773.385 524.25C788.482 534.801 798.184 511.703 820.166 526.592C818.584 531.682 815.443 536.786 813.88 541.775C808.948 557.519 807.131 575.405 806.102 591.766C804.406 618.716 800.887 648.965 814.648 673.584C817.581 678.83 825.379 679.258 826.234 672.479C826.629 656.161 825.127 639.565 826.122 623.202C827.548 625.03 827.826 626.077 828.66 628.193C831.75 640.96 829.052 656.158 829.14 669.237C829.309 694.333 832.271 720.972 839.892 745.066C842.044 751.87 845.108 758.27 847.994 764.714C847.37 766.918 846.562 769.164 845.823 771.343C834.228 745.675 828.324 719.569 824.006 692.001C823.608 689.457 822.88 685.023 819.687 685.076C818.884 685.696 818.525 685.937 818.198 686.926C816.208 692.938 830.809 749.936 834.303 759.613C836.4 765.42 839.178 768.776 841.488 773.866C842.001 774.997 841.839 775.219 841.44 776.326C839.492 778.232 837.763 778.876 835.288 777.387C834.686 775.853 834.992 776.141 835.796 774.091C828.902 751.822 819.051 730.127 814.541 707.227C813.553 702.206 813.042 686.496 808.894 683.592C801.946 678.73 782.353 694.798 773.52 695.608C770.487 695.887 767.753 695.067 765.481 693.101C749.683 679.428 752.066 616.764 751.903 596.488C751.741 582.809 751.461 569.13 751.065 555.455C750.491 536.301 748.564 518.923 747.316 500.08Z" fill="#EAF0E6"/>
<path d="M798.694 669.414C800.827 669.322 801.669 669.444 803.8 670.02C807.495 671.017 809.751 676.436 804.847 677.531C802.983 677.947 800.758 676.295 799.16 675.272C791.105 678.819 786.092 682.784 776.795 686.283C773.052 687.189 765.988 688.585 765.188 683.094C766.475 680.7 771.43 682.052 775.183 680.635C783.201 677.607 790.459 671.167 798.694 669.414Z" fill="#052234"/>
<path d="M276.216 493.096C277.701 493.1 277.749 492.966 278.975 493.696C279.886 495.73 275.722 526.874 275.126 532.954C271.622 568.755 272.165 604.525 270.005 640.376C269.265 652.662 269.032 670.494 265.856 682.222C258.666 680.452 252.517 681.073 244.988 679.041C239.617 677.592 223.572 663.174 220.564 667.299C222.35 677.161 253.771 693.352 263.687 686.548C264.585 685.932 263.546 686.3 264.821 686.183L265.181 687.014C265.111 687.226 264.948 687.783 264.834 687.935C250.376 707.263 236.797 692.769 225.12 680.377C222.805 677.922 218.451 673.021 214.99 674.11C213.444 676.089 213.615 679.89 213.355 682.363C211.458 700.437 207.185 719.185 201.629 736.474L199.894 741.683C197.489 748.793 189.134 773.748 182.997 776.753C180.54 776.827 179.332 775.279 178.928 773.037C180.055 771.135 182.331 769.946 183.885 768.352C188.295 763.828 190.996 756.929 193.058 751.253C202.801 724.439 205.113 699.289 205.499 671.073C210.451 670.512 213.752 670.105 215.926 665.064C218.836 658.316 220.078 650.36 220.632 643.121C221.601 630.466 220.505 617.748 219.747 605.113C218.693 589.608 218.112 573.789 213.981 558.681C210.605 546.328 204.618 534.557 200.048 522.547C214.967 516.307 220.068 523.004 232.641 526.501C250.248 531.396 255.769 514.693 263.635 504.114C267.173 499.355 270.925 496.112 276.216 493.096Z" fill="#EAF0E6"/>
<path d="M698.508 434.071C705.252 438.009 703.671 463.631 707.751 468.379L708.661 468.432C715.608 462.617 707.144 445.604 709.083 441.292L709.857 441.41C713.202 448.211 712.799 470.003 717.251 472.039C723.744 468.959 716.589 445.833 714.984 439.948L721.499 439.842C727.631 467.197 728.1 495.743 730.226 523.511C731.861 544.87 733.076 565.567 733.761 586.991C734.22 601.36 737.394 616.394 737.678 630.911C737.911 642.841 737.342 654.645 737.525 666.529C737.909 688.188 739.507 709.812 742.31 731.306C743.066 737.128 749.309 784.08 744.613 786.193C744.266 786.036 742.369 785.23 742.085 785.442C735.427 790.424 731.391 791.569 723.035 791.959C720.14 774.122 724.441 754.363 721.87 737.594C715.769 697.784 714.668 659.557 714.092 619.375C713.741 594.905 708.847 570.271 708.819 545.591C708.794 522.74 707.284 499.427 704.41 476.741C703.333 468.579 703.16 460.135 701.818 451.967C700.85 445.965 699.405 440.064 698.508 434.071Z" fill="#EAF0E6"/>
<path d="M325.86 432.832C322.763 452.209 318.78 471.857 317.406 491.43C315.69 516.655 316.239 541.99 314.61 567.228C313.51 586.736 310.668 606.341 309.799 625.843C308.97 644.416 308.467 663.231 308.152 681.824C307.772 704.231 303.247 725.402 301.367 747.63C300.068 762.986 301.52 778.843 300.387 794.137C296.823 797.469 294.926 799.486 292.277 803.558C287.828 801.848 283.581 799.687 279.607 797.11C277.031 794.551 277.754 792.735 278.16 789.498L283.234 792.897C286.506 794.446 295.319 799.206 298.012 794.295C297.766 792.908 296.887 792.1 295.673 791.367C288.723 787.168 283.634 787.396 277.783 781.071C278.257 769.668 279.024 758.276 280.081 746.908C282.669 720.001 287.471 689.951 286.549 662.925C285.573 634.299 288.241 607.754 290.936 579.279C293.545 540.743 293.156 501.821 299.932 463.641C301.259 456.16 303.416 447.078 308.912 441.425C308.764 448.488 304.257 467.657 308.064 471.945L308.909 472.326C313.698 470.125 312.403 450.732 314.747 444.096C314.684 448.659 312.892 467.265 314.659 469.538C316.165 470 315.408 469.987 317.007 469.434C321.476 465.21 319.797 443.342 322.362 437.19C322.925 435.84 324.821 433.911 325.86 432.832Z" fill="#EAF0E6"/>
<path d="M279.607 797.111C277.031 794.552 277.754 792.736 278.16 789.499L283.234 792.897L282.321 793.176C281.465 792.588 281.436 792.499 280.433 792.209C279.764 794.7 280.632 795.233 279.607 797.111Z" fill="#EAF0E6"/>
<path d="M243.654 261.775C247.28 264.62 249.909 267.464 252.864 270.937C251.21 272.552 249.576 274.188 247.966 275.845C227.797 296.902 210.207 332.842 200.212 359.7C195.79 371.582 192.12 388.189 189.049 400.534C185.787 413.645 182.497 428.789 181.545 442.204C180.507 457.951 181.521 473.761 184.566 489.264C187.377 503.312 191.28 517.137 196.242 530.621C198.61 536.89 204.383 549.659 205.942 555.405C211.582 576.196 221.655 650.067 206.667 665.638C204.381 663.149 203.267 622.505 202.628 616.182C200.805 598.753 199.351 577.082 193.282 560.403C178.057 518.565 158.735 478.201 165.371 432.402C174.569 368.927 199.816 310.488 243.654 261.775Z" fill="#EAF0E6"/>
<path d="M784.107 272.882C788.165 274.481 806.84 301.342 809.936 305.819C816.303 315.027 823.506 326.734 828.608 336.698C837.231 353.871 844.151 371.79 849.278 390.218C860.669 429.706 864.472 460.703 851.626 500.933C844.96 521.81 834.181 539.785 828.27 560.678C821.146 585.861 819.44 611.85 819.718 637.845C819.826 647.853 819.644 657.674 820.666 667.678C820.635 667.909 820.398 668.429 820.299 668.674L819.448 668.297C817.462 665.486 815.917 660.639 814.962 657.366C807.838 634.237 811.28 610.492 813.039 587.198C814.99 561.36 818.145 546.199 829.643 522.635C837.097 507.36 839.817 484.192 841.024 467.39C843.885 430.722 835.886 398.255 823.788 364.005C812.195 331.186 800.954 310.589 776.843 284.421L784.107 272.882Z" fill="#EAF0E6"/>
<path d="M299.87 440.651C300.957 441.648 298.846 447.947 298.298 449.464C292.305 466.07 290.585 481.778 288.902 499.226C286.273 526.936 285.502 554.644 283.562 582.428C282.042 604.197 278.815 626.355 278.801 648.149C279.202 660.215 279.859 672.078 279.168 684.156C277.986 704.825 275.085 725.407 273.325 746.004C270.717 776.527 268.825 807.077 270.112 837.696C264.28 836.649 254.363 836.499 249.465 834.236C225.999 823.393 230.889 790.884 209.818 775.882C208.248 775.092 208.007 775.331 207.576 774.142C208.744 773.187 211.085 772.958 212.688 772.651C233.785 782.053 232.096 823.657 257.575 831.255C259.82 831.924 261.362 833.047 263.718 832.072C265.186 829.737 262.621 822.764 262.401 818.335C261.629 802.756 262.484 786.774 263.438 771.238C265.987 729.732 273.579 688.187 276.397 646.768C278.645 613.705 278.388 579.866 280.473 546.75C282.085 521.169 285.887 495.418 290.503 470.212C291.732 463.508 292.137 456.186 293.229 449.422C293.966 444.853 296.134 443.08 299.87 440.651Z" fill="#EAF0E6"/>
<path d="M257.023 275.957C259.406 277.483 261.508 279.616 263.575 281.545L263.278 281.916C245.161 304.573 236.432 320.418 223.861 346.168C199.303 396.47 190.835 435.652 198.239 490.632C197.304 491.497 196.418 492.397 195.515 493.294C194.944 494.242 194.885 494.332 194.126 495.145L193.449 494.673C191.626 490.631 189.504 473.263 189.086 467.824C187.526 447.517 190.125 427.418 194.326 407.525C204.325 360.171 223.768 312.705 257.023 275.957Z" fill="#EAF0E6"/>
<path d="M745.059 641.846C745.793 643.508 746.743 657.827 747.238 660.949C749.046 674.087 751.796 687.477 752.979 700.681C756.043 734.852 760.904 769.573 762.59 803.78C762.863 808.456 762.92 813.142 762.762 817.824C762.439 828.543 761.151 840.571 775.559 827.328C790.825 813.298 788.584 790.125 802.694 775.889C806.347 772.203 811.066 770.571 815.549 773.957L815.557 774.862C813.352 776.125 807.589 779.17 806.245 780.895C788.735 803.354 797.196 841.889 755.465 834.984C755.956 816.038 754.952 803.382 753.59 784.422C752.139 763.455 750.319 742.513 748.128 721.606C745.58 695.297 742.912 668.241 745.059 641.846Z" fill="#EAF0E6"/>
<path d="M853.581 569.046C868.788 578.31 870.274 636.185 869.691 652.939C868.003 649.158 867.186 647.493 864.247 644.396C864.523 639.889 865.557 630.99 861.79 627.844C856.782 627.955 857.647 642.337 857.638 645.803C857.643 646.882 857.723 646.509 857.247 647.532L856.346 647.818L855.597 647.361C853.074 642.328 856.3 628.304 851.719 625.488C846.188 625.859 847.999 641.407 848.081 645.362C846.671 646.877 845.028 648.418 843.532 649.876C842.508 621.815 841.857 595.544 853.581 569.046Z" fill="#EAF0E6"/>
<path d="M772.068 290.677C776.603 294.409 782.437 301.687 786.063 306.484C812.727 341.766 831.59 399.468 834.214 442.566C834.979 457.292 834.153 472.054 831.749 486.615C831.505 488.093 831.175 491.46 830.078 492.225C828.912 491.041 827.843 489.691 826.782 488.413C826.951 486.588 827.363 484.285 827.635 482.424C829.109 472.349 829.02 462.364 828.789 452.223C827.484 395.04 804.3 340.961 768.525 295.844C769.747 294.16 770.905 292.401 772.068 290.677Z" fill="#EAF0E6"/>
<path d="M168.546 569.027C168.816 569.273 168.988 569.38 169.178 569.723C179.128 587.723 181.516 611.513 182.929 631.691C183.203 635.597 183.38 642.528 182.608 645.767L182.004 646.126C178.498 642.657 182.377 622.82 176.27 620.328C170.913 622.988 177.626 640.271 174.251 645.528L173.629 645.159L174.375 645.399L173.45 644.931C172.104 642.847 171.526 631.652 171.033 628.066C170.906 627.356 170.626 626.81 170.35 626.119C168.896 625.158 169.652 625.291 168.039 625.558C163.075 629.845 170.797 641.457 165.934 644.093C163.045 641.251 165.88 633.029 162.556 629.902C161.076 629.556 161.764 629.474 160.419 630.147C158.363 633.546 159.699 641.285 160.155 645.395C158.384 646.825 156.459 648.587 154.729 650.104C151.964 627.207 156.981 589.241 168.546 569.027Z" fill="#EAF0E6"/>
<path d="M266.581 318.097L266.99 318.235L267.188 318.794C265.708 322.359 254.766 333.619 251.512 338.13C217.629 385.111 213.068 437.45 222.33 492.199L216.555 492.429L215.204 491.995C213.606 488.862 213.312 483.025 212.877 479.431C206.235 424.57 219.864 354.699 266.581 318.097Z" fill="#EAF0E6"/>
<path d="M386.647 697.056C387.15 704.161 386.421 715.166 385.999 722.45L383.832 758.849C383.383 767.049 383.021 775.275 383.152 783.4C383.563 808.871 383.587 839.414 366.115 860.165C360.915 866.341 349.313 872.84 341.003 873.448C329.638 876.3 314.228 873.696 303.855 868.271C309.22 868.337 315.058 869.072 320.385 869.801C328.545 870.341 340.866 871.087 348.231 867.192C382.77 848.926 377.634 795.801 379.231 763.821C380.212 741.436 382.689 719.134 386.647 697.056Z" fill="white"/>
<path d="M303.855 868.271C309.22 868.337 315.058 869.072 320.385 869.801L319.48 871.313C322.742 873.239 335.819 872.368 341.003 873.448C329.638 876.3 314.228 873.696 303.855 868.271Z" fill="white"/>
<path d="M195.173 614.859L195.884 615.438C196.27 617.566 196.599 619.703 196.872 621.848C198.587 635.337 198.347 649.222 198.547 662.788C199.009 694.172 196.58 741.232 175.679 766.891C174.571 764.877 173.977 763.346 173.137 761.245C193.567 730.405 194.16 651.497 195.173 614.859Z" fill="#EAF0E6"/>
<path d="M713.675 871.337C694.086 875.775 670.293 875.252 657.183 858.561C650.943 850.618 646.263 838.843 644.484 829.072C640.304 806.111 640.693 782.342 639.438 759.106C638.887 746.039 636.585 719.257 638.137 707.241C642.903 721.218 642.481 734.428 643.15 749.527C644.81 786.944 640.151 832.699 668.16 862.745C676.952 872.175 700.605 870.904 713.307 870.528L713.675 871.337Z" fill="white"/>
<path d="M766.062 330.579C770.519 335.508 775.682 344.194 779.768 349.844C809.571 391.063 819.251 441.039 810.723 490.321C808.394 490.494 805.614 490.52 803.24 490.594L802.799 490.274C802.633 488.806 805.569 479.491 806.075 477.017C815.331 431.745 801.419 386.1 773.987 349.073C770.336 344.145 765.521 339.361 762.387 334.247L766.062 330.579Z" fill="#EAF0E6"/>
<path d="M826.123 623.201C828.048 598.929 826.328 575.669 835.885 552.339C840.325 541.501 845.75 532.083 851.375 521.823C856.561 511.929 860.72 498.457 863.553 487.486C863.867 493.28 864.163 499.859 862.944 505.55C859.573 521.292 850.789 536.785 844.215 551.437C839.938 560.963 836.76 570.914 834.741 581.11C832.881 590.767 831.575 600.516 830.831 610.312C830.507 614.709 831.081 625.2 828.66 628.192C827.826 626.076 827.548 625.029 826.123 623.201Z" fill="white"/>
<path d="M744.541 621.006C743.424 610.555 742.165 599.851 741.425 589.379C740.437 575.349 740.459 561.261 739.179 547.24C737.524 529.128 736.47 510.938 734.841 492.834C733.991 483.271 732.948 473.726 731.713 464.203C731.23 460.478 728.723 445.528 729.052 443.319L729.631 443.072C736.572 449.061 735.032 467.604 736.679 476.052C744.669 517.031 744.032 557.435 745.229 598.844C745.558 602.655 745.699 622.973 744.888 625.98C744.351 624.6 744.186 622.439 744.541 621.006Z" fill="#EAF0E6"/>
<path d="M745.229 598.845C745.558 602.656 745.699 622.974 744.888 625.98C744.351 624.601 744.186 622.439 744.541 621.006C745.412 615.509 744.764 605.279 745.229 598.845Z" fill="#2F4D5F"/>
<path d="M161.849 490.236C165.634 496.706 167.137 507.526 170.156 514.752C184.031 547.958 195.998 578.802 195.884 615.437L195.173 614.859C192.04 599.255 191.858 589.99 186.74 573.444C184.471 566.085 181.792 558.85 178.714 551.769C170.04 531.928 158.463 512.341 161.849 490.236Z" fill="white"/>
<path d="M745.502 792.788C744.539 804.527 738.707 805.01 728.492 808.542C728.79 823.153 730.496 851.676 727.691 865.214C724.159 868.381 718.386 870.514 713.675 871.337L713.307 870.528C715.444 869.566 720.335 867.669 720.644 865.606C722.494 853.24 721.101 834.396 721.348 822.065C721.46 815.561 722.028 809.071 723.047 802.64C733.538 802.038 738.032 799.877 745.502 792.788Z" fill="#EAF0E6"/>
<path d="M278.206 459.562L279.474 459.733L279.491 460.179C269.977 467.794 269.373 468.244 263.402 479.58C252.673 499.949 232.82 509.328 209.703 503.164C207.833 502.478 206.76 502.277 206.209 500.332C209.011 497.068 222.604 499.805 227.381 499.064C253.663 494.987 253.648 470.152 278.206 459.562Z" fill="#EAF0E6"/>
<path d="M751.401 461.926C754.647 463.163 759.153 468.25 761.572 470.755C772.386 481.96 775.721 499.3 795.075 498.688C800.487 498.518 815.052 497.011 819.132 500.512L818.902 501.024L817.414 501.287C801.928 503.627 793.995 507.364 778.191 499.568C765.748 493.431 755.076 474.303 751.401 461.926Z" fill="#EAF0E6"/>
<path d="M299.766 802.423C301.56 804.339 300.803 829.023 300.792 833.489C300.764 844.623 301.011 856.229 300.822 867.358L296.888 864.783C295.917 864.174 294.74 863.113 293.832 862.349C295.314 855.082 295.081 846.487 295.115 839.05C295.163 828.564 294.873 818.051 295.065 807.56C296.996 805.685 298.061 804.462 299.766 802.423Z" fill="#EAF0E6"/>
</g>
<defs>
<clipPath id="clip0_201_63">
<rect width="1024" height="1024" fill="white"/>
</clipPath>
</defs>
</svg>
